<svg xmlns="http://www.w3.org/2000/svg" xmlns:xlink="http://www.w3.org/1999/xlink" viewBox="0,0,256,256" width="500px" height="500px"><g fill="none" fill-rule="nonzero" stroke="none" stroke-width="1" stroke-linecap="butt" stroke-linejoin="miter" stroke-miterlimit="10" stroke-dasharray="" stroke-dashoffset="0" font-family="none" font-weight="none" font-size="none" text-anchor="none" style="mix-blend-mode: normal"><g transform="scale(2.56,2.56)"><path d="M87.215,56.71c1.135,-2.155 1.785,-4.605 1.785,-7.21c0,-6.621 -4.159,-12.257 -10.001,-14.478c0,-0.007 0.001,-0.014 0.001,-0.022c0,-11.598 -9.402,-21 -21,-21c-9.784,0 -17.981,6.701 -20.313,15.757c-1.476,-0.485 -3.049,-0.757 -4.687,-0.757c-7.692,0 -14.023,5.793 -14.89,13.252c-5.204,1.101 -9.11,5.717 -9.11,11.248c0,6.351 5.149,11.5 11.5,11.5c0.177,0 0.352,-0.012 0.526,-0.022c-0.004,0.175 -0.026,0.346 -0.026,0.522c0,11.322 9.178,20.5 20.5,20.5c6.437,0 12.175,-2.972 15.934,-7.614c2.178,2.225 5.206,3.614 8.566,3.614c4.65,0 8.674,-2.65 10.666,-6.518c1.052,0.335 2.171,0.518 3.334,0.518c6.075,0 11,-4.925 11,-11c0,-3.311 -1.47,-6.273 -3.785,-8.29z" fill="#7754c5"></path><path d="M67.125,40.5c0,0 -3.64,0 -6.125,0c-2.485,0 -4.5,-2.015 -4.5,-4.5c0,-2.333 1.782,-4.229 4.055,-4.455c-0.022,-0.181 -0.055,-0.358 -0.055,-0.545c0,-2.485 2.015,-4.5 4.5,-4.5c1.438,0 2.703,0.686 3.527,1.736c0.14,-2.636 2.302,-4.736 4.973,-4.736c2.761,0 5,2.239 5,5c0,0.446 -0.077,0.87 -0.187,1.282c0.642,-0.777 1.6,-1.282 2.687,-1.282c1.781,0 3.234,1.335 3.455,3.055c0.181,-0.022 0.358,-0.055 0.545,-0.055c2.485,0 4.5,2.015 4.5,4.5c0,2.485 -2.015,4.5 -4.5,4.5c-2.485,0 -9.5,0 -9.5,0h-5.375v0.5h-3z" fill="#fdfcef"></path><path d="M73.5,23c3.033,0 5.5,2.467 5.5,5.5c0,0.016 0,0.031 0,0.047c0.602,-0.355 1.29,-0.547 2,-0.547c1.831,0 3.411,1.261 3.858,3.005c0.047,-0.003 0.094,-0.005 0.142,-0.005c2.757,0 5,2.243 5,5c0,2.757 -2.243,5 -5,5h-14.875c-0.276,0 -0.5,-0.224 -0.5,-0.5c0,-0.276 0.224,-0.5 0.5,-0.5h14.875c2.206,0 4,-1.794 4,-4c0,-2.206 -1.794,-4 -4,-4c-0.117,0 -0.23,0.017 -0.343,0.032l-0.141,0.019c-0.021,0.003 -0.041,0.004 -0.062,0.004c-0.246,0 -0.462,-0.185 -0.495,-0.437c-0.191,-1.493 -1.463,-2.618 -2.959,-2.618c-0.885,0 -1.723,0.401 -2.301,1.1c-0.098,0.118 -0.241,0.182 -0.386,0.182c-0.078,0 -0.156,-0.018 -0.228,-0.056c-0.209,-0.107 -0.314,-0.346 -0.254,-0.573c0.115,-0.435 0.169,-0.801 0.169,-1.153c0,-2.481 -2.019,-4.5 -4.5,-4.5c-2.381,0 -4.347,1.872 -4.474,4.263c-0.011,0.208 -0.15,0.387 -0.349,0.45c-0.05,0.016 -0.101,0.024 -0.152,0.024c-0.15,0 -0.296,-0.069 -0.392,-0.192c-0.771,-0.982 -1.912,-1.545 -3.133,-1.545c-2.206,0 -4,1.794 -4,4c0,0.117 0.017,0.23 0.032,0.343l0.019,0.141c0.016,0.134 -0.022,0.268 -0.106,0.373c-0.084,0.105 -0.207,0.172 -0.34,0.185c-2.056,0.205 -3.605,1.907 -3.605,3.958c0,2.206 1.794,4 4,4h6.125c0.276,0 0.5,0.224 0.5,0.5c0,0.276 -0.224,0.5 -0.5,0.5h-6.125c-2.757,0 -5,-2.243 -5,-5c0,-2.397 1.689,-4.413 4.003,-4.877c-0.002,-0.041 -0.003,-0.082 -0.003,-0.123c0,-2.757 2.243,-5 5,-5c1.176,0 2.293,0.416 3.183,1.164c0.598,-2.404 2.762,-4.164 5.317,-4.164z" fill="#472b29"></path><path d="M75,30c1.403,0 2.609,0.999 2.913,2.341c0.367,-0.222 0.786,-0.341 1.212,-0.341c1.202,0 2.198,0.897 2.353,2.068c0.203,-0.046 0.396,-0.068 0.585,-0.068c1.529,0 2.811,1.2 2.918,2.732c0.009,0.138 -0.095,0.258 -0.232,0.268c-0.006,0 -0.012,0 -0.018,0c-0.13,0 -0.24,-0.101 -0.249,-0.232c-0.089,-1.271 -1.151,-2.268 -2.419,-2.268c-0.229,0 -0.47,0.042 -0.738,0.127c-0.022,0.007 -0.045,0.01 -0.067,0.01c-0.055,0 -0.11,-0.02 -0.156,-0.054c-0.064,-0.046 -0.102,-0.128 -0.102,-0.208c0,-1.034 -0.841,-1.875 -1.875,-1.875c-0.447,0 -0.885,0.168 -1.231,0.473c-0.047,0.041 -0.106,0.063 -0.165,0.063c-0.032,0 -0.063,-0.006 -0.093,-0.019c-0.088,-0.035 -0.148,-0.117 -0.155,-0.212c-0.104,-1.293 -1.193,-2.305 -2.481,-2.305c-0.208,0 -0.425,0.034 -0.682,0.107c-0.023,0.007 -0.047,0.01 -0.07,0.01c-0.109,0 -0.207,-0.073 -0.239,-0.182c-0.038,-0.133 0.039,-0.271 0.172,-0.309c0.302,-0.086 0.563,-0.126 0.819,-0.126zM61.117,31.5c1.326,0 2.508,0.897 2.874,2.182c0.038,0.133 -0.039,0.271 -0.172,0.309c-0.024,0.006 -0.047,0.009 -0.069,0.009c-0.109,0 -0.209,-0.072 -0.24,-0.182c-0.305,-1.07 -1.289,-1.818 -2.393,-1.818c-0.117,0 -0.23,0.014 -0.342,0.029c-0.012,0.002 -0.023,0.003 -0.035,0.003c-0.121,0 -0.229,-0.092 -0.246,-0.217c-0.019,-0.137 0.077,-0.263 0.214,-0.281c0.134,-0.018 0.27,-0.034 0.409,-0.034z" fill="#472b29"></path><path d="M85.405,67h-9.905c-0.276,0 -0.5,-0.224 -0.5,-0.5c0,-0.276 0.224,-0.5 0.5,-0.5h9.905c0.276,0 0.5,0.224 0.5,0.5c0,0.276 -0.223,0.5 -0.5,0.5zM88.5,67h-1c-0.276,0 -0.5,-0.224 -0.5,-0.5c0,-0.276 0.224,-0.5 0.5,-0.5h1c0.276,0 0.5,0.224 0.5,0.5c0,0.276 -0.223,0.5 -0.5,0.5zM93.491,69h-8.991c-0.276,0 -0.5,-0.224 -0.5,-0.5c0,-0.276 0.224,-0.5 0.5,-0.5h8.991c0.276,0 0.5,0.224 0.5,0.5c0,0.276 -0.224,0.5 -0.5,0.5zM82.5,69h-1c-0.276,0 -0.5,-0.224 -0.5,-0.5c0,-0.276 0.224,-0.5 0.5,-0.5h1c0.276,0 0.5,0.224 0.5,0.5c0,0.276 -0.223,0.5 -0.5,0.5zM79.5,69h-2c-0.276,0 -0.5,-0.224 -0.5,-0.5c0,-0.276 0.224,-0.5 0.5,-0.5h2c0.276,0 0.5,0.224 0.5,0.5c0,0.276 -0.223,0.5 -0.5,0.5zM85.5,71h-2c-0.276,0 -0.5,-0.224 -0.5,-0.5c0,-0.276 0.224,-0.5 0.5,-0.5h2c0.276,0 0.5,0.224 0.5,0.5c0,0.276 -0.224,0.5 -0.5,0.5zM88.5,62c-0.177,0 -0.823,0 -1,0c-0.276,0 -0.5,0.224 -0.5,0.5c0,0.276 0.224,0.5 0.5,0.5c0.177,0 0.823,0 1,0c0.276,0 0.5,-0.224 0.5,-0.5c0,-0.276 -0.224,-0.5 -0.5,-0.5zM88.5,64c-0.177,0 -4.823,0 -5,0c-0.276,0 -0.5,0.224 -0.5,0.5c0,0.276 0.224,0.5 0.5,0.5c0.177,0 4.823,0 5,0c0.276,0 0.5,-0.224 0.5,-0.5c0,-0.276 -0.224,-0.5 -0.5,-0.5zM93.5,66c-0.177,0 -2.823,0 -3,0c-0.276,0 -0.5,0.224 -0.5,0.5c0,0.276 0.224,0.5 0.5,0.5c0.177,0 2.823,0 3,0c0.276,0 0.5,-0.224 0.5,-0.5c0,-0.276 -0.224,-0.5 -0.5,-0.5zM45.5,22h-10c-0.276,0 -0.5,-0.224 -0.5,-0.5c0,-0.276 0.224,-0.5 0.5,-0.5h10c0.276,0 0.5,0.224 0.5,0.5c0,0.276 -0.224,0.5 -0.5,0.5zM49.5,22h-2c-0.276,0 -0.5,-0.224 -0.5,-0.5c0,-0.276 0.224,-0.5 0.5,-0.5h2c0.276,0 0.5,0.224 0.5,0.5c0,0.276 -0.224,0.5 -0.5,0.5zM54.5,24h-10c-0.276,0 -0.5,-0.224 -0.5,-0.5c0,-0.276 0.224,-0.5 0.5,-0.5h10c0.276,0 0.5,0.224 0.5,0.5c0,0.276 -0.223,0.5 -0.5,0.5zM42.5,24h-1c-0.276,0 -0.5,-0.224 -0.5,-0.5c0,-0.276 0.224,-0.5 0.5,-0.5h1c0.276,0 0.5,0.224 0.5,0.5c0,0.276 -0.224,0.5 -0.5,0.5zM39.375,24h-1.875c-0.276,0 -0.5,-0.224 -0.5,-0.5c0,-0.276 0.224,-0.5 0.5,-0.5h1.875c0.276,0 0.5,0.224 0.5,0.5c0,0.276 -0.224,0.5 -0.5,0.5zM48.5,20h-5c-0.276,0 -0.5,-0.224 -0.5,-0.5c0,-0.276 0.224,-0.5 0.5,-0.5h5c0.276,0 0.5,0.224 0.5,0.5c0,0.276 -0.223,0.5 -0.5,0.5zM45.5,26h-2c-0.276,0 -0.5,-0.224 -0.5,-0.5c0,-0.276 0.224,-0.5 0.5,-0.5h2c0.276,0 0.5,0.224 0.5,0.5c0,0.276 -0.224,0.5 -0.5,0.5z" fill="#ffffff"></path><g><path d="M42.695,76.843c-0.007,-1.699 -0.015,-4.741 0.006,-6.554c0.016,-1.34 -0.74,-1.866 -1.4,-2.176c-0.446,-0.21 -0.962,-0.396 -1.509,-0.593c-0.772,-0.278 -1.57,-0.565 -2.101,-0.904c-2.347,-1.497 -3.938,-3.816 -4.867,-7.09c-1.021,-3.603 -1.343,-7.509 -0.983,-11.943c0.158,-1.952 0.434,-4.007 0.842,-6.281c0.764,-4.253 3.179,-7.272 7.384,-9.231c2.23,-1.039 4.698,-1.686 8.002,-2.096c1.469,-0.182 2.998,-0.274 4.545,-0.274c2.212,0 4.482,0.181 6.938,0.552c3.067,0.464 6.295,1.166 9.131,3.147c2.138,1.494 3.599,3.614 4.34,6.303c1.205,4.364 1.549,9.212 1.054,14.817c-0.272,3.09 -0.995,5.807 -2.209,8.306c-1.077,2.214 -2.812,3.803 -5.305,4.859c-2.873,1.216 -6.02,1.479 -8.744,1.63c-2.35,0.13 -4.716,0.22 -7.034,0.267c-1.102,0.022 -1.482,0.463 -1.923,0.972l-0.212,0.241c-1.288,1.429 -4.485,4.6 -5.955,6.048z" fill="#a3a3cd"></path><path d="M52.616,30.4c2.176,0 4.411,0.178 6.832,0.543c2.984,0.452 6.119,1.131 8.835,3.029c2.029,1.418 3.36,3.354 4.067,5.916c1.182,4.282 1.519,9.047 1.032,14.57c-0.265,3.004 -0.965,5.641 -2.141,8.06c-0.999,2.055 -2.618,3.534 -4.949,4.521c-2.768,1.172 -5.844,1.428 -8.51,1.576c-2.328,0.129 -4.686,0.219 -7.01,0.266c-1.309,0.027 -1.858,0.543 -2.439,1.215c-0.061,0.071 -0.127,0.147 -0.202,0.23c-0.995,1.103 -3.146,3.262 -4.742,4.845c-0.004,-1.621 -0.004,-3.568 0.011,-4.874c0.016,-1.32 -0.574,-2.242 -1.8,-2.817c-0.478,-0.225 -1.035,-0.426 -1.575,-0.62c-0.735,-0.265 -1.494,-0.539 -1.958,-0.834c-2.196,-1.4 -3.69,-3.589 -4.569,-6.691c-0.998,-3.521 -1.312,-7.346 -0.959,-11.696c0.157,-1.934 0.43,-3.966 0.834,-6.214c0.721,-4.012 3.007,-6.865 6.99,-8.72c2.16,-1.007 4.563,-1.635 7.793,-2.036c1.44,-0.178 2.941,-0.269 4.46,-0.269M52.616,29c-1.54,0 -3.084,0.088 -4.632,0.28c-2.84,0.353 -5.597,0.937 -8.211,2.156c-4.147,1.932 -6.932,5.039 -7.777,9.742c-0.377,2.099 -0.679,4.222 -0.851,6.348c-0.333,4.112 -0.123,8.202 1.008,12.191c0.879,3.102 2.434,5.749 5.163,7.49c0.986,0.628 2.632,1.043 3.689,1.541c0.671,0.315 1.006,0.702 0.997,1.534c-0.031,2.64 0,7.81 0,7.81h0.424c0,0 5.021,-4.915 6.746,-6.827c0.576,-0.638 0.71,-0.964 1.63,-0.983c2.354,-0.048 4.708,-0.137 7.059,-0.268c3.081,-0.171 6.117,-0.473 8.978,-1.685c2.476,-1.048 4.442,-2.688 5.662,-5.198c1.31,-2.695 2.013,-5.555 2.277,-8.549c0.449,-5.086 0.287,-10.124 -1.077,-15.066c-0.768,-2.781 -2.269,-5.052 -4.614,-6.691c-2.847,-1.989 -6.109,-2.763 -9.427,-3.266c-2.342,-0.353 -4.689,-0.559 -7.044,-0.559z" fill="#472b29"></path></g><g><path d="M40.043,64.27c0.814,0.51 2.174,0.846 3.048,1.25" fill="#a3a3cd"></path><path d="M43.09,66.021c-0.07,0 -0.142,-0.015 -0.209,-0.046c-0.333,-0.154 -0.74,-0.298 -1.159,-0.446c-0.691,-0.245 -1.406,-0.498 -1.944,-0.835c-0.234,-0.146 -0.305,-0.455 -0.159,-0.689c0.147,-0.233 0.457,-0.304 0.689,-0.158c0.446,0.279 1.107,0.514 1.748,0.74c0.45,0.159 0.887,0.315 1.245,0.48c0.25,0.116 0.36,0.414 0.244,0.664c-0.086,0.182 -0.266,0.29 -0.455,0.29z" fill="#472b29"></path></g><g><path d="M35.777,58.193c0.403,1.398 0.979,2.683 1.798,3.791" fill="#a3a3cd"></path><path d="M37.576,62.483c-0.153,0 -0.305,-0.07 -0.402,-0.203c-0.814,-1.1 -1.428,-2.392 -1.877,-3.949c-0.077,-0.266 0.077,-0.543 0.342,-0.619c0.268,-0.079 0.543,0.078 0.619,0.342c0.416,1.441 0.978,2.629 1.72,3.633c0.165,0.222 0.118,0.535 -0.104,0.699c-0.09,0.065 -0.195,0.097 -0.298,0.097z" fill="#472b29"></path></g><g><path d="M70.989,54.026c0.371,-4.127 0.237,-8.214 -0.89,-12.225" fill="#a3a3cd"></path><path d="M70.989,54.525c-0.015,0 -0.03,-0.001 -0.045,-0.002c-0.275,-0.024 -0.478,-0.268 -0.453,-0.543c0.41,-4.556 0.124,-8.496 -0.873,-12.044c-0.075,-0.267 0.081,-0.542 0.346,-0.617c0.267,-0.069 0.542,0.082 0.617,0.346c1.03,3.668 1.327,7.726 0.906,12.405c-0.024,0.26 -0.242,0.455 -0.498,0.455z" fill="#472b29"></path></g><g><path d="M69.108,60.963c0.671,-1.356 1.149,-2.763 1.468,-4.216" fill="#a3a3cd"></path><path d="M69.107,61.463c-0.074,0 -0.15,-0.017 -0.221,-0.052c-0.248,-0.123 -0.349,-0.423 -0.227,-0.67c0.63,-1.272 1.11,-2.652 1.428,-4.102c0.059,-0.271 0.326,-0.444 0.595,-0.381c0.27,0.059 0.44,0.325 0.381,0.596c-0.334,1.528 -0.842,2.985 -1.508,4.33c-0.086,0.177 -0.263,0.279 -0.448,0.279z" fill="#472b29"></path></g><g fill="#ffffff"><path d="M38.818,42.221c0.056,-2.564 2.021,-4.005 4.007,-4.442c0.759,-0.168 1.43,0.1 1.994,0.638c1.558,1.487 2.789,3.21 3.718,5.145c0.407,0.848 0.224,1.599 -0.468,2.23c-0.143,0.131 -0.293,0.253 -0.448,0.37c-1.577,1.187 -1.81,2.084 -0.969,3.869c1.433,3.039 3.807,5.079 6.881,6.345c0.811,0.334 1.572,0.169 2.192,-0.488c0.083,-0.088 0.177,-0.172 0.238,-0.274c1.212,-2.021 2.969,-1.821 4.591,-0.668c1.066,0.758 2.102,1.556 3.156,2.329c1.606,1.179 1.592,2.288 0.615,3.884c-0.713,1.166 -1.781,1.973 -3.039,2.499c-0.919,0.384 -1.857,0.303 -2.762,-0.081c-7.601,-3.216 -13.56,-8.285 -17.5,-15.571c-0.812,-1.501 -1.377,-3.135 -2.024,-4.721c-0.133,-0.325 -0.125,-0.708 -0.182,-1.064zM57.454,49.546c-0.552,0 -1,-0.447 -1,-1c0,-1.854 -1.509,-3.363 -3.363,-3.363c-0.552,0 -1,-0.447 -1,-1c0,-0.553 0.448,-1 1,-1c2.958,0 5.363,2.406 5.363,5.363c0,0.553 -0.448,1 -1,1z"></path><path d="M61.624,49.637c-0.055,0 -0.111,-0.005 -0.167,-0.014c-0.544,-0.092 -0.912,-0.608 -0.819,-1.152c0.059,-0.353 0.089,-0.716 0.089,-1.08c0,-3.573 -2.907,-6.48 -6.48,-6.48c-0.364,0 -0.728,0.03 -1.081,0.09c-0.545,0.085 -1.061,-0.276 -1.152,-0.82c-0.091,-0.545 0.275,-1.061 0.82,-1.152c0.462,-0.078 0.938,-0.117 1.413,-0.117c4.676,0 8.48,3.805 8.48,8.48c0,0.476 -0.04,0.95 -0.118,1.412c-0.082,0.487 -0.505,0.833 -0.985,0.833z"></path><path d="M65.71,49.729c-0.073,0 -0.147,-0.008 -0.222,-0.024c-0.539,-0.122 -0.876,-0.657 -0.755,-1.196c0.16,-0.706 0.241,-1.433 0.241,-2.16c0,-5.354 -4.356,-9.71 -9.71,-9.71c-0.727,0 -1.454,0.081 -2.16,0.24c-0.54,0.119 -1.074,-0.217 -1.196,-0.756c-0.122,-0.538 0.217,-1.073 0.755,-1.195c0.851,-0.191 1.726,-0.289 2.601,-0.289c6.457,0 11.71,5.253 11.71,11.71c0,0.876 -0.098,1.751 -0.29,2.602c-0.104,0.462 -0.517,0.778 -0.974,0.778z"></path></g><g fill="#472b29"><path d="M53.504,61.285c-0.044,0 -0.088,-0.012 -0.129,-0.036c-5.378,-3.229 -9.608,-7.646 -12.571,-13.124c-0.615,-1.138 -1.095,-2.362 -1.559,-3.548c-0.157,-0.4 -0.314,-0.801 -0.476,-1.198c-0.105,-0.256 -0.132,-0.527 -0.159,-0.791c-0.011,-0.11 -0.022,-0.22 -0.04,-0.327c0.058,-2.827 2.208,-4.287 4.2,-4.727c0.79,-0.18 1.557,0.067 2.22,0.702c1.551,1.479 2.819,3.234 3.771,5.217c0.446,0.93 0.265,1.803 -0.525,2.522c-0.148,0.136 -0.305,0.263 -0.467,0.385c-1.49,1.121 -1.682,1.888 -0.893,3.563c0.059,0.125 0.005,0.273 -0.12,0.333c-0.125,0.058 -0.273,0.005 -0.333,-0.12c-0.893,-1.895 -0.639,-2.909 1.044,-4.176c0.149,-0.111 0.293,-0.229 0.43,-0.354c0.627,-0.572 0.762,-1.206 0.411,-1.937c-0.925,-1.929 -2.158,-3.635 -3.665,-5.072c-0.545,-0.519 -1.139,-0.713 -1.768,-0.575c-1.807,0.398 -3.757,1.712 -3.811,4.204c0.016,0.071 0.028,0.191 0.04,0.312c0.024,0.237 0.046,0.463 0.124,0.651c0.163,0.4 0.321,0.803 0.479,1.205c0.458,1.171 0.933,2.382 1.533,3.492c2.92,5.398 7.088,9.75 12.389,12.935c0.118,0.07 0.157,0.225 0.085,0.343c-0.043,0.078 -0.126,0.121 -0.21,0.121z"></path></g><g fill="#472b29"><path d="M60.043,64.158c-0.524,0 -1.064,-0.117 -1.617,-0.351c-0.776,-0.329 -1.546,-0.682 -2.288,-1.05c-0.124,-0.061 -0.174,-0.211 -0.113,-0.335c0.062,-0.124 0.212,-0.172 0.335,-0.112c0.733,0.363 1.494,0.712 2.262,1.036c0.908,0.386 1.773,0.411 2.568,0.08c1.296,-0.542 2.279,-1.349 2.922,-2.399c0.981,-1.603 0.837,-2.532 -0.55,-3.552c-0.398,-0.292 -0.794,-0.588 -1.189,-0.883c-0.651,-0.486 -1.301,-0.973 -1.963,-1.443c-0.93,-0.66 -1.812,-0.926 -2.557,-0.773c-0.65,0.137 -1.213,0.596 -1.675,1.366c-0.063,0.104 -0.144,0.188 -0.216,0.261l-0.054,0.056c-0.686,0.728 -1.563,0.919 -2.469,0.548c-1.619,-0.668 -3.025,-1.543 -4.18,-2.601c-0.102,-0.094 -0.108,-0.252 -0.015,-0.354c0.094,-0.101 0.252,-0.107 0.353,-0.016c1.111,1.019 2.468,1.862 4.032,2.507c0.721,0.298 1.366,0.152 1.915,-0.429l0.061,-0.063c0.058,-0.059 0.113,-0.114 0.145,-0.168c0.536,-0.894 1.209,-1.432 2.001,-1.598c0.883,-0.181 1.903,0.111 2.95,0.854c0.665,0.474 1.319,0.962 1.973,1.45c0.395,0.295 0.789,0.59 1.186,0.882c1.598,1.173 1.795,2.395 0.681,4.216c-0.699,1.142 -1.761,2.016 -3.157,2.599c-0.434,0.182 -0.881,0.272 -1.341,0.272z"></path></g><g fill="#472b29"><path d="M48.23,52.803c-0.073,0 -0.145,-0.031 -0.194,-0.093c-0.326,-0.4 -0.631,-0.829 -0.906,-1.272c-0.073,-0.117 -0.037,-0.271 0.081,-0.345c0.118,-0.069 0.272,-0.037 0.344,0.081c0.264,0.426 0.556,0.837 0.869,1.222c0.087,0.106 0.071,0.264 -0.036,0.352c-0.046,0.036 -0.102,0.055 -0.158,0.055z"></path></g><g fill="#472b29"><path d="M57.454,49.796c-0.689,0 -1.25,-0.561 -1.25,-1.25c0,-1.717 -1.396,-3.113 -3.113,-3.113c-0.689,0 -1.25,-0.561 -1.25,-1.25c0,-0.689 0.561,-1.25 1.25,-1.25c0.392,0 0.784,0.041 1.165,0.122c0.135,0.028 0.222,0.161 0.193,0.296c-0.028,0.136 -0.164,0.221 -0.296,0.192c-0.347,-0.073 -0.704,-0.11 -1.062,-0.11c-0.414,0 -0.75,0.337 -0.75,0.75c0,0.413 0.336,0.75 0.75,0.75c1.992,0 3.613,1.621 3.613,3.613c0,0.413 0.336,0.75 0.75,0.75c0.414,0 0.75,-0.337 0.75,-0.75c0,-1.852 -1.007,-3.563 -2.629,-4.468c-0.121,-0.067 -0.164,-0.22 -0.097,-0.341c0.068,-0.121 0.219,-0.165 0.34,-0.097c1.78,0.993 2.886,2.873 2.886,4.905c0,0.69 -0.561,1.251 -1.25,1.251z"></path></g><g fill="#472b29"><path d="M56.156,39.377c-0.019,0 -0.037,-0.002 -0.056,-0.007c-0.605,-0.14 -1.229,-0.21 -1.853,-0.21c-0.138,0 -0.25,-0.112 -0.25,-0.25c0,-0.138 0.112,-0.25 0.25,-0.25c0.662,0 1.323,0.075 1.965,0.224c0.135,0.03 0.218,0.165 0.188,0.3c-0.027,0.115 -0.13,0.193 -0.244,0.193z"></path></g><g fill="#472b29"><path d="M61.624,49.887c-0.068,0 -0.136,-0.006 -0.206,-0.017c-0.332,-0.056 -0.62,-0.236 -0.814,-0.509c-0.193,-0.272 -0.269,-0.604 -0.213,-0.933c0.057,-0.34 0.086,-0.689 0.086,-1.038c0,-3.436 -2.795,-6.23 -6.23,-6.23c-0.35,0 -0.7,0.029 -1.04,0.086c-0.685,0.118 -1.327,-0.354 -1.44,-1.024c-0.114,-0.681 0.346,-1.326 1.025,-1.44c0.134,-0.025 0.266,0.067 0.288,0.204c0.023,0.137 -0.069,0.266 -0.205,0.288c-0.408,0.069 -0.684,0.457 -0.615,0.865c0.068,0.402 0.46,0.673 0.867,0.614c0.364,-0.062 0.742,-0.093 1.12,-0.093c3.711,0 6.73,3.02 6.73,6.73c0,0.377 -0.031,0.754 -0.093,1.121c-0.034,0.198 0.012,0.396 0.128,0.56c0.116,0.164 0.289,0.271 0.486,0.306c0.388,0.05 0.796,-0.211 0.864,-0.615c0.076,-0.448 0.114,-0.91 0.114,-1.371c0,-3.265 -1.936,-6.225 -4.933,-7.541c-0.126,-0.055 -0.184,-0.202 -0.128,-0.329c0.056,-0.125 0.205,-0.184 0.33,-0.128c3.178,1.396 5.231,4.535 5.231,7.998c0,0.489 -0.041,0.979 -0.121,1.454c-0.101,0.603 -0.619,1.042 -1.231,1.042z"></path></g><g fill="#472b29"><path d="M65.71,49.979c-0.093,0 -0.186,-0.01 -0.276,-0.03c-0.672,-0.152 -1.096,-0.823 -0.944,-1.495c0.155,-0.688 0.234,-1.396 0.234,-2.105c0,-5.216 -4.244,-9.46 -9.46,-9.46c-0.708,0 -1.416,0.079 -2.105,0.234c-0.673,0.143 -1.343,-0.276 -1.495,-0.944c-0.152,-0.672 0.271,-1.343 0.944,-1.495c0.871,-0.195 1.764,-0.295 2.656,-0.295c0.138,0 0.25,0.112 0.25,0.25c0,0.138 -0.112,0.25 -0.25,0.25c-0.855,0 -1.711,0.095 -2.546,0.283c-0.403,0.091 -0.657,0.493 -0.566,0.896c0.091,0.4 0.49,0.652 0.898,0.566c0.724,-0.163 1.469,-0.246 2.214,-0.246c5.492,0 9.96,4.468 9.96,9.96c0,0.745 -0.083,1.491 -0.247,2.215c-0.091,0.403 0.163,0.807 0.566,0.897c0.385,0.087 0.808,-0.173 0.897,-0.566c0.188,-0.833 0.283,-1.689 0.283,-2.546c0,-4.12 -2.235,-7.945 -5.833,-9.981c-0.12,-0.068 -0.163,-0.221 -0.095,-0.341c0.068,-0.121 0.221,-0.161 0.341,-0.095c3.755,2.126 6.087,6.117 6.087,10.417c0,0.894 -0.1,1.787 -0.296,2.656c-0.128,0.574 -0.63,0.975 -1.217,0.975z"></path></g><g fill="#472b29"><path d="M59.427,35.652c-0.03,0 -0.06,-0.005 -0.089,-0.017c-0.688,-0.263 -1.405,-0.458 -2.13,-0.583c-0.136,-0.023 -0.227,-0.152 -0.204,-0.288c0.023,-0.137 0.148,-0.232 0.289,-0.204c0.756,0.13 1.504,0.334 2.223,0.608c0.129,0.049 0.194,0.193 0.145,0.322c-0.038,0.101 -0.133,0.162 -0.234,0.162z"></path></g><g><path d="M34.5,59.5c0,0 1.567,0 3.5,0c1.933,0 3.5,-1.567 3.5,-3.5c0,-1.781 -1.335,-3.234 -3.055,-3.455c0.028,-0.179 0.055,-0.358 0.055,-0.545c0,-1.933 -1.567,-3.5 -3.5,-3.5c-1.032,0 -1.95,0.455 -2.59,1.165c-0.384,-1.808 -1.987,-3.165 -3.91,-3.165c-2.209,0 -4,1.791 -4,4c0,0.191 0.03,0.374 0.056,0.558c-0.428,-0.344 -0.964,-0.558 -1.556,-0.558c-1.228,0 -2.245,0.887 -2.455,2.055c-0.179,-0.028 -0.358,-0.055 -0.545,-0.055c-1.933,0 -3.5,1.567 -3.5,3.5c0,1.933 1.567,3.5 3.5,3.5c1.933,0 7.5,0 7.5,0v0.5h7z" fill="#fdfcef"></path><path d="M36.25,55c-0.138,0 -0.25,-0.112 -0.25,-0.25c0,-1.223 0.995,-2.218 2.218,-2.218c0.034,0.009 0.737,-0.001 1.244,0.136c0.133,0.036 0.212,0.173 0.176,0.306c-0.036,0.134 -0.173,0.213 -0.306,0.176c-0.444,-0.12 -1.1,-0.12 -1.113,-0.118c-0.948,0 -1.719,0.771 -1.719,1.718c0,0.138 -0.112,0.25 -0.25,0.25zM29.5,59c-0.27614,0 -0.5,0.22386 -0.5,0.5c0,0.27614 0.22386,0.5 0.5,0.5c0.27614,0 0.5,-0.22386 0.5,-0.5c0,-0.27614 -0.22386,-0.5 -0.5,-0.5z" fill="#472b29"></path><path d="M38,60h-3.5c-0.276,0 -0.5,-0.224 -0.5,-0.5c0,-0.276 0.224,-0.5 0.5,-0.5h3.5c1.654,0 3,-1.346 3,-3c0,-1.496 -1.125,-2.768 -2.618,-2.959c-0.134,-0.018 -0.255,-0.088 -0.336,-0.196c-0.081,-0.108 -0.115,-0.244 -0.094,-0.377c0.023,-0.154 0.048,-0.308 0.048,-0.468c0,-1.654 -1.346,-3 -3,-3c-0.85,0 -1.638,0.355 -2.219,1c-0.125,0.139 -0.321,0.198 -0.5,0.148c-0.182,-0.049 -0.321,-0.195 -0.36,-0.379c-0.341,-1.604 -1.78,-2.769 -3.421,-2.769c-1.93,0 -3.5,1.57 -3.5,3.5c0,0.143 0.021,0.28 0.041,0.418c0.029,0.203 -0.063,0.438 -0.242,0.54c-0.179,0.102 -0.396,0.118 -0.556,-0.01c-0.365,-0.293 -0.794,-0.448 -1.243,-0.448c-0.966,0 -1.792,0.691 -1.963,1.644c-0.048,0.267 -0.296,0.446 -0.569,0.405c-0.154,-0.024 -0.308,-0.049 -0.468,-0.049c-1.654,0 -3,1.346 -3,3c0,1.654 1.346,3 3,3h7.5c0.276,0 0.5,0.224 0.5,0.5c0,0.276 -0.224,0.5 -0.5,0.5h-7.5c-2.206,0 -4,-1.794 -4,-4c0,-2.206 1.794,-4 4,-4c0.059,0 0.116,0.002 0.174,0.006c0.414,-1.186 1.537,-2.006 2.826,-2.006c0.349,0 0.689,0.061 1.011,0.18c0.165,-2.333 2.115,-4.18 4.489,-4.18c1.831,0 3.466,1.127 4.153,2.774c0.68,-0.498 1.502,-0.774 2.347,-0.774c2.206,0 4,1.794 4,4c0,0.048 -0.001,0.095 -0.004,0.142c1.743,0.448 3.004,2.027 3.004,3.858c0,2.206 -1.794,4 -4,4z" fill="#472b29"></path><path d="M32.5,59c-0.159,0 -0.841,0 -1,0c-0.276,0 -0.5,0.224 -0.5,0.5c0,0.276 0.224,0.5 0.5,0.5c0.159,0 0.841,0 1,0c0.276,0 0.5,-0.224 0.5,-0.5c0,-0.276 -0.224,-0.5 -0.5,-0.5z" fill="#472b29"></path></g></g></g></svg>